<svg xmlns="http://www.w3.org/2000/svg" viewBox="0 0 186 88"><defs><style>.cls-1{fill:#fefefe;}.cls-2{fill:#242121;}.cls-3{fill:#231f20;}.cls-4{fill:#242021;}.cls-5{fill:#fdfcfc;}.cls-6{fill:#f7f7f7;}.cls-7{fill:#dc7065;}.cls-8{fill:#cac9c9;}.cls-9{fill:#c9c8c8;}.cls-10{fill:#c8c7c7;}.cls-11{fill:#7e7c7c;}.cls-12{fill:#c7c6c6;}.cls-13{fill:#376739;}.cls-14{fill:#376639;}.cls-15{fill:#262323;}.cls-16{fill:#252122;}.cls-17{fill:#272324;}.cls-18{fill:#262223;}.cls-19{fill:#39663b;}.cls-20{fill:#c63627;}.cls-21{fill:#c13b2b;}.cls-22{fill:#282522;}.cls-23{fill:#2c2c26;}.cls-24{fill:#de776d;}.cls-25{fill:#3e6940;}.cls-26{fill:#de786d;}.cls-27{fill:#de786e;}.cls-28{fill:#e1847b;}.cls-29{fill:#e28a81;}.cls-30{fill:#abb2aa;}.cls-31{fill:#d55346;}.cls-32{fill:#d3493b;}.cls-33{fill:#bcc4bc;}.cls-34{fill:#919d91;}.cls-35{fill:#e7e7e7;}.cls-36{fill:#dfdede;}.cls-37{fill:#fcfcfc;}.cls-38{fill:#f6f6f6;}.cls-39{fill:#fbfbfb;}.cls-40{fill:#2c2321;}.cls-41{fill:#c93627;}.cls-42{fill:#c53727;}.cls-43{fill:#fdfbfb;}</style></defs><g id="Layer_2" data-name="Layer 2"><g id="Layer_1-2" data-name="Layer 1"><path class="cls-1" d="M185.93,56v6c-2.86,1.92-6,1.66-9.12,1-6.46-1.32-10.75.43-13.5,5.57-2.48,4.62-.95,11.67,3.2,15.52,1.24,1.16,3.55,1.44,3.43,3.83H152a7.57,7.57,0,0,1-.89-1.31c-.91-4.25-.46-8.53-.35-12.81.08-2.89,1.88-4.82,3.91-6.61.88-.77,1.77-1.76,1.24-3-.6-1.4-2-.75-3.07-.74-6.22.07-6.32.23-6.47,6.37-.15,5.59.55,11.21-.47,16.78a7.26,7.26,0,0,1-.9,1.31H134a2.51,2.51,0,0,1-.55-1.43c.18-3.31.23-6.62.17-9.94-.07-3.56.13-7,3.23-9.47A2.45,2.45,0,0,0,138,64.45c-.52-1.63-1.93-.79-3-.8-5.32,0-5.47.2-5.64,5.59-.18,5.78.56,11.59-.47,17.35a7.11,7.11,0,0,1-.9,1.29H113c-.32-1,.37-1.52,1-2,1-.91,2.07-1.84,1.09-3.36-.77-1.2-1.95-1.11-3.13-.84-2.2.49-4.33.5-6.15-1-1-.87-2.14-1.86-1.69-3.35.39-1.31,1.77-1.38,2.91-1.47,3.32-.28,6.66-.05,10-.15,4.42-.13,5.33-1.46,3.71-5.56-1.89-4.75-5.28-7.55-10.56-7.8s-9,2.19-11.38,6.64c-2.52,4.67-1.16,8.91,1.66,13.06,1.57,2.3,5,2.77,5.56,5.93H90a7.54,7.54,0,0,1-.88-1.29c-.94-4.93-2.06-10.76,0-14.63,3.09-5.67.94-9.83-.55-14.63-.28-.92-.12-2.19-1.35-2.35a2.26,2.26,0,0,0-2.48,2c-.86,4.55-3.82,8.42-1.08,14,2.18,4.42,1.06,10.38.19,15.65A7.59,7.59,0,0,1,83,87.88H75c-2-2.25-1.22-5-1.39-7.58-.29-4.41.65-8.88-.66-13.22-1.68-4.08-4.59-5-8.8-4.09-7.72,1.64-7.68,1.47-7.79,9.29-.06,4.76.52,9.55-.44,14.29a7.81,7.81,0,0,1-.9,1.31H41c-.1-2.56,2.35-2.92,3.7-4.18C49.38,79.35,50.3,71.6,46.61,67a11.83,11.83,0,0,0-16.44-2.44c-6.31,4.55-6.49,14.2-.44,19.51C31,85.13,33.27,85.46,33,87.88h-21a1.06,1.06,0,0,1,0-1.38,17.94,17.94,0,0,1,3.14-2.41c4.8-3.76,5.84-7.7,3-13a7.5,7.5,0,0,1-.4-7c2.54-6.56-1.47-12.27-8.58-12.87C6.14,51,2.86,52.14.07,50,.07,34.33.13,18.69,0,3.06,0,.56.57,0,3.07,0,23.38.12,43.7.07,64,.07c-.43,3.37-4.31,4.22-5.28,7.2a22.34,22.34,0,0,1-2.24,3.39c-4.61,4.5-4.62,4.51-8.76-.39a12.53,12.53,0,0,0-3-2.55,10.31,10.31,0,0,0-6.79-2c-.6.24-1.19.52-1.8.76a2.73,2.73,0,0,1-2-.08,2.09,2.09,0,0,1-.74-1.08,2.7,2.7,0,0,1,.41-1.83c-1.91-1.18-3.19.36-4.4,1.22A20.08,20.08,0,0,0,23,13.39a40.74,40.74,0,0,0-3.16,14.5c-.43,8,3.5,13,12.47,16.36,7.52,3,12.45,1.59,17.07-4.81,1-1.33,1.75-2.82,3.66-3,1.29.12,2,1.06,2.79,1.93,5.5,6.19,12.67,5.91,19.87,4.82,3.12-.47,5-3,6.47-5.79.76-1.47,1.15-3.12,2.16-4.48a2.68,2.68,0,0,1,4-.5c2.74,3.66,5.18,7.48,9.8,9.39,3.21,1.32,6.16,2.21,9.48.89,7.08-2.44,9.27-8.28,10.36-14.88.67-4.71,2.63-9.38.76-14.17-1.08-2.77-1.87-5.94-5.51-6.66-2.51,1.63-4.62-.88-7-.62a10.42,10.42,0,0,0-3.87.64A10.49,10.49,0,0,0,96.31,12a44.6,44.6,0,0,0-2.46,4.3c-.61,1.11-1,2.92-2.53,2.65s-1.38-2-1.55-3.31a10.45,10.45,0,0,1,0-1.48c1-6.86,5-11.07,11.55-13,1.83-.67,3.89-.12,5.69-1,25.32,0,50.63,0,75.94-.07,2.5,0,3.09.56,3.07,3.06-.13,17-.07,33.93-.07,50.89-2.91-.06-2.15-3.18-3.67-4.4-.34,1.27-1,2.44-1.35,3.94C182.68,54.19,185,53.78,185.93,56Z"/><path class="cls-2" d="M57.79,7c.55-3.68,3.82-4.94,6.23-7h7c8.84,2.15,14.3,9.17,15.21,19.59.13,1.49.1,3,.12,4.48s0,3.26,0,4.89A9.61,9.61,0,0,1,85.2,33c-1.68,5.76-3.87,11-10.88,12-8.69,1.25-16.19-.4-21.29-8.28-1.14-.44-2-2.16-3.26.44-4,8-8.89,10-17.89,7.94-8.94-2.4-13.11-7.2-13.32-16.06A36,36,0,0,1,24.62,7.9c3-4.55,7.23-7.19,13.09-6.75-.47,2-2.68,1.73-3.65,2.94C32.48,6.6,29.64,8,28.18,10.56c-.24.39-.5.76-.77,1.12a11,11,0,0,0-1.86,3.61c-2.15,7-1,13.81,1.89,20.29,2.52,5.62,7.82,6.72,12.61,2.8,5.17-4.24,7-9.94,6.39-16.39a43.74,43.74,0,0,0-2.38-11.12C43.54,9.49,42.2,7.39,45.3,7c3.1,1.27,4.41,4.22,6.28,6.7,2-.57,2.27-3.26,4.39-3.68,2.54.57.77,2,.46,2.91-2.11,6.32-3.76,12.66-1.65,19.32A15,15,0,0,0,60,39.33c7.29,2.87,11.43,1.6,17.8-5.48,4.41-4.89,5.09-10.08,2-16A30.68,30.68,0,0,0,71.49,8.1c-2.55-2-5.5-2-8.53-1.37C61.26,7.07,59.6,8.49,57.79,7Z"/><path class="cls-3" d="M.07,50c3.14-.09,6.29-.39,9.42-.21,8.39.49,13,8.57,9.22,16.11-.6,1.2-1.23,1.78-.26,3.36,5,8.15,2.72,14.32-6.35,17.79a35.73,35.73,0,0,1-12-.13Z"/><path class="cls-4" d="M169.94,87.88C159.67,82,157.44,71.08,165.07,64c2.26-2.11,5-3.9,8-3,4.31,1.31,8.66-.16,12.87,1V86.88c-3.21,1.54-6.8-.73-10,1Z"/><path class="cls-4" d="M106,87.88c-8.45-4.77-11.35-10.28-9.2-17.46a13,13,0,0,1,14.4-9.52c6.11.62,11.11,6,11.7,12.31.24,2.6-.26,4-3.35,3.82-5-.24-10-.06-15.31-.06,1.24,3.34,3.93,4.87,6.49,3.58,3.8-1.91,6.13,0,7.09,2.53,1.21,3.24-2.86,3-4.51,4.41a3,3,0,0,0-.31.39Z"/><path class="cls-4" d="M33,87.88C28.24,84.81,24,81.44,23.86,75,23.75,68.15,28,62.32,34.15,61a13.23,13.23,0,0,1,15.06,7.75,13.79,13.79,0,0,1-4.58,16.78c-1.17.82-2.39,1.56-3.59,2.34Z"/><path class="cls-5" d="M85.2,33l-.09-3.47a9.91,9.91,0,0,0,0-5.88C85.21,12.92,81.3,4.59,71,.07h29a.91.91,0,0,1-.17,1.36c-8.56,3.22-11,10.18-11.53,18.47-.29,4.37,1.21,8.8-.51,13.1A1.87,1.87,0,0,0,85.2,33Z"/><path class="cls-6" d="M68,87.88H62a7,7,0,0,1-1-1.62c-1-4.59-.53-9.22-.37-13.84.08-2.61.87-5.16,4-5.31,3.5-.16,4.41,2.59,4.63,5.32.36,4.6.67,9.24-.27,13.83A6.51,6.51,0,0,1,68,87.88Z"/><path class="cls-7" d="M185.93,56c-2.11-.94-4.22-1.86-7.06-.73,1-2.64,2.09-5.28,3.22-8.14,2.35,2,2,5,3.84,6.87Z"/><path class="cls-8" d="M68,87.88v-1c4.08-1.56,4.56-4.79,4.61-8.69.06-4.11-1.4-8.51,1.52-12.3,2.17,7.26.69,14.66.86,22Z"/><path class="cls-9" d="M.07,86.88l12,.13a2.83,2.83,0,0,0,0,.87C8.08,87.31,3.91,89,.07,86.88Z"/><path class="cls-10" d="M175.94,87.88c3.06-3,6.73,0,10-1C182.78,89,179.26,87.39,175.94,87.88Z"/><path class="cls-11" d="M99.89,1A1,1,0,0,0,100,.07h7c-1.46,1.34-3.4,1.3-5.16,1.78C101.29,1.33,100.26,1.87,99.89,1Z"/><path class="cls-10" d="M61.9,86.7,62,87.88H55l.07-1.11A5.48,5.48,0,0,1,61.9,86.7Z"/><path class="cls-10" d="M89.89,86.71,90,87.88H83l.07-1.11A5.48,5.48,0,0,1,89.89,86.71Z"/><path class="cls-9" d="M145,87.88l.25-1.32a5.56,5.56,0,0,1,6.74.3v1Z"/><path class="cls-12" d="M134,87a2.38,2.38,0,0,1,0,.92h-6a3.37,3.37,0,0,1,0-.95C130,85.42,132,85.1,134,87Z"/><path class="cls-13" d="M57.79,7c11.87-4.36,14.54-2.15,22.7,9.25A13.81,13.81,0,0,1,80.34,33c-4.57,5.62-9.64,10.7-18,8.91A4.67,4.67,0,0,1,59,40c-2-2.91-4.6-5.53-4.64-8.83A1.28,1.28,0,0,1,53.79,33c-3.19-8-.28-15.5,2.18-23C56.58,9,57.19,8,57.79,7Z"/><path class="cls-14" d="M45.3,7c-2.11,1.32-.29,2.61.1,3.82,2.09,6.51,3.62,13,1.59,19.87C45.13,37,39.61,41.81,34.16,42.05c-3.27.15-5.63-1.13-6.93-3.82-3.73-7.74-6.06-15.7-2.39-24.2,1.33-.58,1.34-2.11,2.19-3l0,.07c2.23-1.94,3.11-5.74,7.15-5.18L34,6.12c.69,1.71-.78,2.69-1.36,4-1.07,2.33-1.38,4.68,1.39,5.79,2.59,1,5.74,2.63,7.17-1.76,1.6-4.64-2.42-6.38-4.67-9C39.81,4.05,42.78,4.45,45.3,7Z"/><path class="cls-14" d="M106,5.24c2.61-1.27,4.54,2.83,7.24.91,1-.1,1.52.62,1.72,1.43,2.67,10.81,1.92,21.15-4.85,30.41-5.24,7.17-11.22,6.78-15.49-1a57.8,57.8,0,0,1-5.64-16.44c-.43-2.19-1.27-5,1.85-6.39.28,1.41-.59,2.94.53,4.39,1.62-2.5,1.82-5.76,4.38-7.62,2.32-.59,2.43,1.72,3.49,2.72,2.87,2.71,5.35,2.71,8.29-.16C108.52,10.43,106.42,8,106,5.24Z"/><path class="cls-15" d="M90.79,14.12c-1.57,1.71-1.19,3.92-.74,5.67,1.52,5.9,3,11.88,6.07,17.22,3.54,6.21,7.4,6.68,11.95,1.3,6-7.08,8-15.54,6.46-24.55-.43-2.51.48-5.34-1.33-7.61-.27-1.24-.14-2.13,1.29-1a15.59,15.59,0,0,1,6.25,14.17A80.85,80.85,0,0,1,119.09,28c-2.83,5.92-4.91,12.36-11.13,15.92C100.44,46.22,92.23,41.79,87.79,33A41.57,41.57,0,0,1,88,12.51C89.68,6.29,93.09,1.9,99.89,1l1.94.89C95.88,3.9,92,7.86,90.79,14.12Z"/><path class="cls-4" d="M61.9,86.7l-6.8.07c0-7.29,0-14.57-.13-21.85-.06-2.44.43-3.63,3.2-3.43A22.38,22.38,0,0,0,66.6,61c3.63-1.08,6.21,1.38,7.55,4.85.07,4.94-.22,9.91.31,14.8C75,86,73.06,87.8,68,86.87c-.09-4.62-.15-9.24-.3-13.86-.07-2.23.51-5.12-3.06-5C61.45,68.06,62,70.71,62,72.8,61.91,77.43,61.92,82.06,61.9,86.7Z"/><path class="cls-16" d="M89.89,86.71l-6.81.06c0-4,.08-8-.14-11.94-.13-2.45,1.51-5.73-2.58-6.81-.27-.07-.4-1.21-.33-1.83.2-1.89-.9-3.91,2.2-5.16,2.09-.84-.35-4.64,1.31-6.29,1.42-1.41,3.65-2,6.4-3.44,0,2.78,0,4.82,0,6.86,0,1.6-.3,3,2.21,3.58,2.26.53,2.36,6.15.15,6.62C89.53,69,90,70.54,90,72.29,89.92,77.1,89.91,81.9,89.89,86.71Z"/><path class="cls-17" d="M152,86.86l-6.74-.3c0-7.15.15-14.3,0-21.45-.07-2.9.94-3.82,3.74-3.63,2.32.16,4.74,1.55,7-.41a1.13,1.13,0,0,1,1.81.89c-.06,1.92,1,5.1-.59,5.55-6.75,1.87-4.69,7.06-5,11.39C152.05,81.55,152,84.21,152,86.86Z"/><path class="cls-18" d="M134,87l-6,0c-.12-7.63-.18-15.25-.4-22.87-.07-2.54,1.43-2.51,3.21-2.54,2.5-.05,5.07,1.46,7.53-.47a1,1,0,0,1,1.63,1.06c-.16,1.9,1,5-.68,5.5C133,69.33,134.75,74,134.49,78.1,134.29,81.05,135,84.05,134,87Z"/><path class="cls-19" d="M31.88,45.09c6,0,11.8-.25,15.82-6,1.43-2,.65-4.55,2.5-6.65,1.2,1.35,2.61,2.35,2.83,4.25-1.33,1.83-2.61,3.7-4,5.48C45.12,47.17,37.49,49.51,31.88,45.09Z"/><path class="cls-20" d="M36.53,5.07c5.26,1.56,6.58,3.58,5.7,8.71-.64-.26-1.1-.34-1.57.44-1.91,3.23-4.56,3.16-7,.94-2.65-2.4-1.74-5,.4-7.38.65-.7,1.84-.84,2.05-2A.56.56,0,0,1,36.53,5.07Z"/><path class="cls-21" d="M106,5.24c3.39,2.06,3.32,5.3,3,8.65-2.93,1.42-6.06,2.47-8.22-.84-1.71-2.6-1.15-5.28,1.79-7C103.42,4.75,104.71,5.07,106,5.24Z"/><path class="cls-22" d="M36.09,5.78c.7.92.14,1.62-.54,2.08-2.25,1.51-3.1,3.48-1.89,6a3.62,3.62,0,0,0,3.82,1.82c2.94-.25,2.43-2.88,2.81-4.91a3.83,3.83,0,0,1,1.94,3c-.63,4.15-2.59,5.39-7.13,4.06-3.27-1-5.48-2.72-4.26-6.84C31.45,9,33.15,7.87,34,6.12Z"/><path class="cls-23" d="M102.5,6c-3.11,6.73-2.63,7.33,6.43,7.86-3.1,4.12-8.13,4.2-11.23.2-.78-1-.6-2.59-2-3.2C97,7.9,99.62,6.79,102.5,6Z"/><path class="cls-24" d="M161.85,46.83c4.09,0,5.86,1.63,5.93,4.45S166.19,56,163.18,56s-4.86-1.71-4.9-4.48S159.84,46.9,161.85,46.83Z"/><path class="cls-25" d="M108,43.88c4.9-4.48,6.81-11,11.13-15.92C118.4,35.37,115.56,41.28,108,43.88Z"/><path class="cls-26" d="M134.16,50.91c.47-.89-1.61-3.78,1.81-3.9a2.69,2.69,0,0,1,2.91,3.23c-.26,1.84-.69,4.8-1.76,5.16C134.14,56.39,133.54,54.11,134.16,50.91Z"/><path class="cls-27" d="M168.91,51.22c.62-1.34-1.4-4.31,2.16-4.21,1.87.05,3.56,1.78,2.67,3.31-1,1.72.5,4.64-1.75,5.06C169,55.94,168.89,55.5,168.91,51.22Z"/><path class="cls-7" d="M147.42,55.92c-2.8-1.14-4.94-1.46-7.38.1a30.17,30.17,0,0,1,3.53-9.34C144.87,49.78,146,52.41,147.42,55.92Z"/><path class="cls-28" d="M127,47.1c5.54-.2,5.54-.2,3.12,8.85C127.8,53.27,130.4,49.54,127,47.1Z"/><path class="cls-29" d="M176.73,55.56a11.65,11.65,0,0,1-.13-8.24A8,8,0,0,1,176.73,55.56Z"/><path class="cls-30" d="M34.14,5.88C31,6.53,29.66,9.73,27,11.06c1.09-3.61,3.86-5.51,7.07-7Z"/><path class="cls-31" d="M155.53,55.6c-1.37-2.68-.45-5.12-1.26-7.57s2.08,0,3.17-1C155,49.53,156.82,52.74,155.53,55.6Z"/><path class="cls-32" d="M151.36,47.18c-2.93,2.31-.31,5.8-1.87,8.22-1.65-2.29.54-5.26-1.61-7.75C147.28,47,150,47.66,151.36,47.18Z"/><path class="cls-33" d="M53.79,33l.41-2.28C55.36,34.14,58,36.63,59,40A13,13,0,0,1,53.79,33Z"/><path class="cls-34" d="M27,11c-.14,1.44-.05,3-2.19,3C25.35,12.86,25.44,11.39,27,11Z"/><path class="cls-15" d="M85.13,23.63c1.6,2,.75,3.92,0,5.88C85.12,27.55,85.12,25.59,85.13,23.63Z"/><path class="cls-35" d="M9,71.85c3.07.11,4.72,1.47,4.79,3.9s-1.6,3.85-4.09,4c-3.48.22-2.37-2.43-2.4-4.14S6.35,71.66,9,71.85Z"/><path class="cls-36" d="M7.15,60.66c.33-1.45-.79-3.81,2-3.61a3.65,3.65,0,0,1,3.64,4A3.59,3.59,0,0,1,9.32,64.6C6.16,64.79,7.59,62.13,7.15,60.66Z"/><path class="cls-37" d="M178.87,74.52c.69,3.83-.9,6.07-4.84,6.29a6.27,6.27,0,0,1-6.4-6.68C167.84,70.27,170,68,173.9,68,178.39,67.86,179.46,70.62,178.87,74.52Z"/><path class="cls-38" d="M114.86,71.62H104.49C107,66.53,111,66.39,114.86,71.62Z"/><path class="cls-39" d="M43.4,73.9c-.14,4.11-2.15,6.66-6,6.85s-6.21-2-6.54-6A6.1,6.1,0,0,1,37,67.92C41.06,68,42.93,70.34,43.4,73.9Z"/><path class="cls-40" d="M72.08,11.06C77,11.06,76.21,13.21,74,16c-2.47,2.33-4.93,4.67-8.78,3.19-4.12-.63-3-3.62-3.24-6.73L64.84,15C68.84,16.58,69.87,12.76,72.08,11.06Z"/><path class="cls-41" d="M72.08,11.06c-2.26,6.51-3.59,7.24-7.24,3.95C66.33,9.8,67.38,9.23,72.08,11.06Z"/><path class="cls-42" d="M65.19,19.14c3.29-.06,5.66-2.65,8.78-3.19.21,2.92-.75,5.47-3.49,6.52S66.38,21.18,65.19,19.14Z"/><path class="cls-43" d="M163.06,48.16c1.82.49,3,1.4,2.93,3.42a2.69,2.69,0,0,1-2.79,2.83,2.8,2.8,0,0,1-3.16-3C160.05,49.47,161.33,48.55,163.06,48.16Z"/></g></g></svg>