<svg xmlns="http://www.w3.org/2000/svg" viewBox="0 0 38 49"><defs><style>.cls-1{fill:#fdfdfd;}.cls-2{fill:#242021;}.cls-3{fill:#376639;}.cls-4{fill:#292723;}.cls-5{fill:#3e6a3f;}.cls-6{fill:#5a5758;}.cls-7{fill:#63603a;}.cls-8{fill:#376739;}.cls-9{fill:#c63728;}.cls-10{fill:#8a3727;}</style></defs><g id="Layer_2" data-name="Layer 2"><g id="Layer_1-2" data-name="Layer 1"><path class="cls-1" d="M.06,16c0-4.66.11-9.32,0-14C0,.31.32,0,2.06,0Q19,.15,36,0c1.73,0,2.06.32,2,2.05Q37.86,24.51,38,47c0,1.73-.32,2.07-2,2q-17-.15-33.89,0C.32,49,0,48.69,0,47c.15-5,0-10,0-15,2.64.13,2.54,2.62,3.43,4.15a16.27,16.27,0,0,0,17.06,7.6c7.13-2.38,9.31-8.24,10.42-14.85.87-5.28,2.94-10.62.13-15.84C30,11,29.66,7.63,25.88,8.5c-1.41.46-2.69-.07-4-.53a9,9,0,0,0-6.33-.21,14.3,14.3,0,0,0-4.8,3A17.62,17.62,0,0,0,9.25,13c-.72,1.11-1.29,2.29-2,3.4-.8,1.32-1.08,3.85-2.93,3.38s-1.43-3-1.55-4.71c.59-5.55,3.68-9.31,8.5-11.81,2.07-.56,4-1.5,5.38-1.66a24.29,24.29,0,0,0-6.52,2.22C6,5.31,4.36,8.92,2.71,12.56,2.11,13.89,2.53,16.09.06,16Z"/><path class="cls-2" d="M20.93,44.84C14.22,47,5.17,42.78,1.9,36,1.26,34.66.67,33.32.06,32V16C2.45,11,2.85,4.46,9.91,3c1-.39,2.1-.88,2.06,1A16,16,0,0,0,3.8,15.11C4,23.8,7.11,31.6,11.59,38.79c2.24,3.6,5.19,3.4,8.2-.12,5.87-6.84,7.7-14.92,6.5-23.75-.31-2.3-.94-4.57-.37-6.91.34-1-.73-3.86,2-1.49A15.49,15.49,0,0,1,33.7,20.17,86,86,0,0,1,32,28.93C29.27,34.88,27.19,41.32,20.93,44.84Z"/><path class="cls-3" d="M25.92,8c4.51,11.88,1.29,25.76-6.41,33-2.23,2.09-4.45,2.71-7.07.79C7.21,38,1.87,21.53,3.8,15.11v5c2.27-3,2.33-6.42,5-8.23,2.33-.56,2.42,1.78,3.51,2.79,2.9,2.68,5.54,2.6,8.24-.43.44-2.12-.33-4.23-.08-6.36.3-.76.73-1.3,1.66-1Z"/><path class="cls-4" d="M21.9,14.92c-3.09,4.06-8,4.14-11.1.25-.82-1-.63-2.65-2-3.29.23-.75.18-1.7,1.3-1.83A9.93,9.93,0,0,1,14,8.8a3,3,0,0,1,.82,1.1c.4,2.66,1.69,4.19,4.63,3.76A2.18,2.18,0,0,1,21.9,14.92Z"/><path class="cls-5" d="M20.93,44.84c4.93-4.45,6.84-11,11.11-15.91C31.58,36.9,27.63,42.55,20.93,44.84Z"/><path class="cls-6" d="M12,3.94c-.41-.92-1.34-.71-2.06-1,2.57-1.55,5.35-2.1,9.56-1.7Z"/><path class="cls-7" d="M22.1,6.91,21,8c-1.54,1-3.29,0-4.89.54a2.44,2.44,0,0,1-1.24-.32A.85.85,0,0,1,15,7.05,6.51,6.51,0,0,1,22.1,6.91Z"/><path class="cls-8" d="M15,7.05c0,.31,0,.61,0,.92.39,1-.07,1.26-1,1.14a6.58,6.58,0,0,1-3.94.94C11.44,8.62,12.86,7.24,15,7.05Z"/><path class="cls-9" d="M15.84,8c1.72-2,3.45-.84,5.18,0,1.37,2.18,1.13,4.56.88,6.94a3.47,3.47,0,0,0-2.75-.2c-3.81,1-5.76-.49-5.07-4.64,1.09-1.2,2.72-1.32,4.9-2.29-.22.06-1.3-.17-1.1.46.05.15-.44.28-.79.26A1.65,1.65,0,0,1,15.84,8Z"/><path class="cls-10" d="M15.84,8l3.53.38-5.29,1.7c0-.32-.06-.65-.08-1L15,8Z"/></g></g></svg>